<svg width="564" height="112" viewBox="0 0 564 112" fill="none" xmlns="http://www.w3.org/2000/svg">
<g clip-path="url(#clip0_49_33)">
<path d="M489.215 89.1149L542.019 87.1214L532.689 38.7143L472.67 35.2959L489.215 89.1149Z" fill="#FCD821"/>
<path d="M143.997 22.9976L181.256 52.7442L220.611 103.832L144.34 107.969L143.997 22.9976Z" fill="#FCD821"/>
<path d="M208.098 20.2788L245.244 50.063L243.403 102.638L205.764 65.48L208.098 20.2788Z" fill="#FCD821"/>
<path d="M392.767 9.37402L430.026 39.1207L464.42 90.4775L391.369 94.4395L392.767 9.37402Z" fill="#FCD821"/>
<path d="M144.016 22.9663L115.482 24.5286V25.341L67.8577 27.947V29.8218L34.4 31.6528V59.4685L41.9578 59.056V109.825L71.596 108.207V80.4161L72.1889 80.3849V112.006L145.202 108.013V81.5035L144.022 81.566V64.1492L151.736 63.7243V36.8898L144.022 37.3147V22.9663H144.016Z" fill="#FCEE21"/>
<path d="M342.628 60.2685C342.946 60.2685 343.27 60.2623 343.607 60.2435C347.926 60.006 351.577 58.2625 354.161 55.2003C356.564 52.3506 357.831 48.8323 357.831 45.0202V39.9708C357.831 36.0462 356.489 32.5279 353.949 29.7907C352.026 27.7221 348.556 25.3162 342.89 25.6286C338.571 25.8661 334.92 27.6097 332.336 30.6718C329.934 33.5215 328.667 37.0398 328.667 40.8519V45.9014C328.667 49.8322 330.008 53.3505 332.548 56.0815C334.352 58.025 337.541 60.2685 342.628 60.2685ZM341.766 40.8457C341.766 39.9958 341.997 39.5458 342.347 39.1334C342.447 39.0146 342.646 38.7772 343.601 38.7272C344.019 38.7022 344.281 38.7397 344.388 38.7709C344.531 38.9334 344.718 39.2021 344.718 39.9708V45.0202C344.718 45.8701 344.487 46.3201 344.138 46.7325C344.038 46.8513 343.838 47.0887 342.883 47.1387C342.434 47.1637 342.191 47.12 342.097 47.095C341.954 46.9325 341.766 46.67 341.766 45.8951V40.8457Z" fill="#FCEE21"/>
<path d="M364.246 18.5478C364.134 18.4541 364.022 18.3603 363.909 18.2666C361.101 15.9418 357.806 14.2233 354.123 13.1547C350.591 12.1298 346.815 11.7173 342.89 11.936C338.989 12.1485 335.245 12.9609 331.762 14.3545C328.18 15.7856 324.991 17.7979 322.276 20.3414C319.53 22.9161 317.321 26.0282 315.704 29.5903C315.536 29.959 315.386 30.3277 315.236 30.7027V13.6046L286.703 15.1669V15.9793L242.816 18.3791V17.5667L214.283 19.129V64.2177C212.298 60.7806 210.538 57.3372 209.028 53.9564L208.965 53.8189C208.691 53.2439 208.485 52.444 208.366 51.5066C208.191 50.1505 208.104 48.8007 208.104 47.5071V20.2789L178.466 21.8974V48.4007C178.466 49.6881 178.379 51.0504 178.204 52.444C178.079 53.4564 177.854 54.3126 177.548 54.9937L177.492 55.1187C175.664 59.4182 173.355 63.9865 170.64 68.7047C167.881 73.4917 164.792 78.3474 161.453 83.1343L157.815 88.3525L179.602 104.582L183.509 99.2888C186.236 95.5955 188.988 91.7209 191.678 87.7713C192.29 86.8777 192.882 85.984 193.463 85.1029C193.925 85.7528 194.393 86.409 194.873 87.0652C197.519 90.6898 200.284 94.2581 203.086 97.6765L207.561 103.132L214.276 96.7391V104.232L242.81 102.67V74.7103L243.403 76.0226V102.632L316.416 98.6389V94.808L364.24 92.1958V96.0267L392.774 94.4643V9.36133L364.24 10.9237V18.5478H364.246Z" fill="#FCEE21"/>
<path d="M535.466 1.56233V5.55563L529.444 5.88684V0.0124986L500.118 1.61857V7.48666L489.215 8.08035V4.08704L460.681 5.64937V6.05557L439.225 7.23044L410.691 8.79277V57.4686L416.676 57.1436V93.0834L489.215 89.1151V51.313L491.461 54.4877V73.7543L535.466 71.3483V87.0778L564 85.5155V0L535.466 1.56233Z" fill="#FCEE21"/>
<path d="M65.0368 102.963L48.5046 103.869V53.0938L40.9468 53.5062V38.8391L65.0368 37.5205V102.963V102.963Z" fill="#CA4491"/>
<path d="M115.894 72.3919L74.4044 74.6604V35.1336L115.894 32.8651V72.3919ZM138.642 102.77L78.7356 106.044V79.2287L94.1632 78.385V91.8335L138.642 89.4026V102.77ZM100.467 59.7871V47.1573L89.8383 47.7385V60.3683L100.467 59.7871ZM137.463 82.4596L122.035 83.3032V31.7152L137.463 30.8716V45.2137L145.177 44.7888V58.481L137.463 58.906V82.4596Z" fill="#662D91"/>
<path d="M208.154 94.4831C205.427 91.1522 202.762 87.7151 200.166 84.1655C197.569 80.6159 195.273 77.1538 193.276 73.7854C191.279 77.3725 188.944 81.1284 186.267 85.0467C183.59 88.9712 180.912 92.7396 178.235 96.3641L166.82 87.8588C170.284 82.8907 173.448 77.9225 176.307 72.9543C179.165 67.9923 181.568 63.2241 183.509 58.6621C184.083 57.381 184.482 55.9062 184.688 54.2376C184.894 52.569 185 50.9505 185 49.3694V29.0842L201.532 28.178V48.4695C201.532 50.0443 201.638 51.6566 201.844 53.3002C202.057 54.9438 202.45 56.3749 203.024 57.5935C204.965 61.943 207.262 66.3113 209.914 70.7045C212.56 75.0978 215.543 79.6223 218.851 84.2718L208.154 94.4831ZM236.263 97.4265L220.836 98.2702V26.3095L236.263 25.4658V97.4265V97.4265Z" fill="#662D91"/>
<path d="M285.854 41.2576C285.854 45.0071 285.042 48.1505 283.414 50.6815C281.785 53.2125 279.213 55.4497 275.7 57.3808C271.344 59.7367 266.894 62.0615 262.357 64.3425C257.819 66.6297 253.001 68.8607 247.909 71.0417L242.398 58.7931C247.066 56.5309 251.647 54.2124 256.134 51.8501C260.622 49.4879 264.678 47.2256 268.298 45.0759C269.034 44.6572 269.571 44.1072 269.914 43.4386C270.258 42.7699 270.426 42.0262 270.426 41.2076V37.9454L245.631 39.3015V25.7718L285.86 23.572V41.2576H285.854ZM309.869 93.4017L249.962 96.6764V71.9041L265.39 71.0605V82.4717L309.869 80.0407V93.4017ZM308.683 73.0915L293.256 73.9352V22.3534L308.683 21.5098V38.7078L316.397 38.2891V51.9814L308.683 52.4001V73.0915Z" fill="#662D91"/>
<path d="M386.227 89.2273L370.799 90.071V79.3159L364.109 86.6089L319.711 89.0398V75.3476L370.805 72.5542V18.1103L386.233 17.2666V89.2273H386.227ZM366.705 45.1447C366.705 48.6256 366.075 51.7565 364.814 54.5374C363.553 57.3246 361.862 59.7119 359.74 61.6992C357.612 63.6927 355.134 65.2488 352.301 66.3861C349.468 67.5173 346.447 68.1734 343.245 68.3484C340.044 68.5234 337.023 68.1984 334.19 67.3735C331.356 66.5486 328.879 65.2613 326.751 63.5052C324.622 61.7491 322.931 59.5431 321.67 56.8997C320.41 54.25 319.779 51.1878 319.779 47.7132V42.6638C319.779 39.1892 320.41 36.0583 321.67 33.2711C322.931 30.4839 324.622 28.0966 326.751 26.1094C328.879 24.1158 331.356 22.5598 334.19 21.4224C337.023 20.2913 340.044 19.6351 343.245 19.4601C346.447 19.2851 349.461 19.6101 352.301 20.4287C355.134 21.2537 357.612 22.541 359.74 24.3033C361.868 26.0594 363.56 28.2654 364.814 30.9151C366.075 33.5648 366.705 36.6269 366.705 40.1016V45.1447ZM351.278 40.939C351.278 38.658 350.566 36.7519 349.149 35.2271C347.733 33.7023 345.767 33.0086 343.245 33.1461C340.724 33.2836 338.758 34.196 337.342 35.8708C335.925 37.5518 335.213 39.5329 335.213 41.8139V46.8696C335.213 49.1505 335.919 51.0566 337.342 52.5814C338.758 54.1062 340.724 54.7999 343.245 54.6624C345.767 54.5249 347.733 53.6188 349.149 51.9377C350.566 50.2567 351.278 48.2756 351.278 45.9946V40.939Z" fill="#662D91"/>
<path d="M423.229 87.1214L482.662 83.8718V50.3755L467.234 51.2191V56.8435L440.236 58.3184L423.229 64.124V87.1214ZM467.234 67.7673V72.9855L438.657 74.5478V69.3296L467.234 67.7673Z" fill="#CA4491"/>
<path d="M482.662 48.0134V43.8389L468.102 48.8133L482.662 48.0134Z" fill="#CA4491"/>
<path d="M438.657 52.7817L423.229 53.6254V64.1242L440.236 58.3186L438.657 58.4061V52.7817Z" fill="#662D91"/>
<path d="M467.234 12.8358V23.5909L458.734 24.0533V13.7107L443.306 14.5544V20.9099L432.678 21.4911V15.1356L417.25 15.9792V51.5128L458.74 49.2443V37.4268L467.24 36.9644V48.8631L468.108 48.8131L482.668 43.8449V11.9922L467.234 12.8358ZM443.3 37.9393L432.672 38.5205V32.6524L443.3 32.0712V37.9393Z" fill="#662D91"/>
<path d="M498.015 67.7924L542.019 65.3864V81.1159L557.447 80.2723V51.5005L498.015 54.7564V67.7924Z" fill="#CA4491"/>
<path d="M537.844 25.3535V25.0098L536.64 25.4222L537.844 25.3535Z" fill="#662D91"/>
<path d="M497.066 52.0315C500.58 50.0443 503.806 48.1195 506.752 46.2447C509.691 44.3699 512.469 42.4139 515.096 40.3703C517.773 42.0702 520.501 43.6637 523.284 45.1386C526.068 46.6196 529.007 48.1132 532.103 49.6256L540.21 38.7518C537.582 37.3207 534.88 35.7271 532.103 33.9773C529.538 32.365 527.26 30.8152 525.231 29.3091L489.602 41.4702L497.066 52.0315Z" fill="#CA4491"/>
<path d="M522.891 13.7861V7.91797L506.671 8.80537V14.6735L491.48 15.5046V27.8907L506.596 27.0658C506.49 27.8345 506.24 28.5094 505.847 29.1031C505.454 29.6968 504.886 30.3092 504.156 30.9466C501.896 32.8089 499.55 34.5525 497.11 36.1836C494.669 37.8146 492.086 39.4582 489.358 41.133L489.602 41.4767L525.231 29.3156C525.057 29.1843 524.876 29.0531 524.701 28.9281C524.177 28.5782 523.783 28.1782 523.521 27.7283C523.259 27.2846 523.072 26.7596 522.972 26.1722L536.64 25.4223L537.85 25.0098V12.9674L522.891 13.7861Z" fill="#662D91"/>
<path d="M542.019 23.5846V49.9004L557.447 49.0567V18.3164L542.019 23.5846Z" fill="#CA4491"/>
<path d="M557.447 7.90527L542.019 8.74893V23.5848L557.447 18.3166V7.90527Z" fill="#662D91"/>
<path d="M0 58.9059L34.5249 107.663L9.13674 52.1816L0 58.9059Z" fill="#FCEE21"/>
<path d="M0.0498962 92.9021L30.0126 110.419L2.565 86.4653L0.0498962 92.9021Z" fill="#FCEE21"/>
</g>
<defs>
<clipPath id="clip0_49_33">
<rect width="564" height="112" fill="white"/>
</clipPath>
</defs>
</svg>
