<svg width="141" height="81" viewBox="0 0 141 81" fill="none" xmlns="http://www.w3.org/2000/svg">
<g id="Group">
<path id="Vector" d="M6.22935 80.1214L65.6618 76.8718V43.3755L50.2342 44.2191V49.8435L23.2359 51.3184L6.22935 57.124V80.1214ZM50.2342 60.7673V65.9855L21.6569 67.5478V62.3296L50.2342 60.7673Z" fill="#CA4491"/>
<path id="Vector_2" d="M65.6618 41.0134V36.8389L51.1017 41.8133L65.6618 41.0134Z" fill="#CA4491"/>
<path id="Vector_3" d="M21.6569 45.7817L6.22935 46.6254V57.1242L23.2359 51.3186L21.6569 51.4061V45.7817Z" fill="#662D91"/>
<path id="Vector_4" d="M50.2341 5.83584V16.5909L41.734 17.0533V6.71075L26.3064 7.5544V13.9099L15.6781 14.4911V8.13559L0.2505 8.97924V44.5128L41.7402 42.2443V30.4268L50.2404 29.9644V41.8631L51.1079 41.8131L65.668 36.8449V4.99219L50.2341 5.83584ZM26.3002 30.9393L15.6719 31.5205V25.6524L26.3002 25.0712V30.9393Z" fill="#662D91"/>
<path id="Vector_5" d="M81.0145 60.7924L125.019 58.3864V74.1159L140.447 73.2723V44.5005L81.0145 47.7564V60.7924Z" fill="#CA4491"/>
<path id="Vector_6" d="M120.844 18.3535V18.0098L119.64 18.4222L120.844 18.3535Z" fill="#662D91"/>
<path id="Vector_7" d="M80.0659 45.0315C83.5796 43.0443 86.8061 41.1195 89.7518 39.2447C92.6913 37.3699 95.4685 35.4139 98.096 33.3703C100.773 35.0702 103.501 36.6637 106.284 38.1386C109.068 39.6196 112.007 41.1132 115.103 42.6256L123.21 31.7518C120.582 30.3207 117.88 28.7271 115.103 26.9773C112.538 25.365 110.26 23.8152 108.231 22.3091L72.6018 34.4702L80.0659 45.0315Z" fill="#CA4491"/>
<path id="Vector_8" d="M105.891 6.78606V0.917969L89.6707 1.80537V7.67346L74.4803 8.50462V20.8907L89.5959 20.0658C89.4898 20.8345 89.2401 21.5094 88.847 22.1031C88.4538 22.6968 87.8859 23.3092 87.1557 23.9466C84.8964 25.8089 82.5499 27.5525 80.1097 29.1836C77.6694 30.8146 75.0857 32.4582 72.3584 34.133L72.6018 34.4767L108.231 22.3156C108.057 22.1843 107.876 22.0531 107.701 21.9281C107.177 21.5782 106.783 21.1782 106.521 20.7283C106.259 20.2846 106.072 19.7596 105.972 19.1722L119.64 18.4223L120.85 18.0098V5.9674L105.891 6.78606Z" fill="#662D91"/>
<path id="Vector_9" d="M125.019 16.5846V42.9004L140.447 42.0567V11.3164L125.019 16.5846Z" fill="#CA4491"/>
<path id="Vector_10" d="M140.447 0.905273L125.019 1.74893V16.5848L140.447 11.3166V0.905273Z" fill="#662D91"/>
</g>
</svg>
