<svg width="228" height="42" viewBox="0 0 228 42" fill="none" xmlns="http://www.w3.org/2000/svg">
<circle cx="207" cy="21" r="21" fill="#F29D52"/>
<path d="M217.541 15.42C217.422 14.9454 217.18 14.5106 216.839 14.1594C216.499 13.8082 216.071 13.5532 215.601 13.42C213.881 13 207.001 13 207.001 13C207.001 13 200.121 13 198.401 13.46C197.93 13.5932 197.503 13.8482 197.162 14.1994C196.821 14.5506 196.579 14.9854 196.461 15.46C196.146 17.2056 195.992 18.9763 196.001 20.75C195.989 22.537 196.143 24.3213 196.461 26.08C196.592 26.5398 196.839 26.9581 197.179 27.2945C197.519 27.6308 197.939 27.8738 198.401 28C200.121 28.46 207.001 28.46 207.001 28.46C207.001 28.46 213.881 28.46 215.601 28C216.071 27.8668 216.499 27.6118 216.839 27.2606C217.18 26.9094 217.422 26.4746 217.541 26C217.853 24.2676 218.007 22.5103 218.001 20.75C218.012 18.963 217.858 17.1787 217.541 15.42V15.42Z" fill="white"/>
<path d="M204.75 24.0166L210.5 20.7466L204.75 17.4766V24.0166Z" fill="#F29D52"/>
<circle cx="145" cy="21" r="21" fill="#F29D52"/>
<path d="M150 11H147C145.674 11 144.402 11.5268 143.464 12.4645C142.527 13.4021 142 14.6739 142 16V19H139V23H142V31H146V23H149L150 19H146V16C146 15.7348 146.105 15.4804 146.293 15.2929C146.48 15.1054 146.735 15 147 15H150V11Z" fill="white"/>
<circle cx="83" cy="21" r="21" fill="#F29D52"/>
<path d="M88 11H78C75.2386 11 73 13.2386 73 16V26C73 28.7614 75.2386 31 78 31H88C90.7614 31 93 28.7614 93 26V16C93 13.2386 90.7614 11 88 11Z" stroke="white" stroke-width="2" stroke-linecap="round" stroke-linejoin="round"/>
<path d="M87.0036 20.3664C87.127 21.1986 86.9849 22.0486 86.5974 22.7954C86.2099 23.5422 85.5968 24.1478 84.8452 24.5261C84.0937 24.9043 83.2421 25.036 82.4114 24.9023C81.5807 24.7687 80.8134 24.3765 80.2185 23.7816C79.6235 23.1866 79.2313 22.4193 79.0977 21.5886C78.964 20.7579 79.0957 19.9063 79.4739 19.1548C79.8522 18.4032 80.4578 17.7901 81.2046 17.4026C81.9514 17.0151 82.8014 16.873 83.6336 16.9964C84.4825 17.1223 85.2685 17.5179 85.8753 18.1247C86.4822 18.7315 86.8777 19.5175 87.0036 20.3664Z" stroke="white" stroke-width="2" stroke-linecap="round" stroke-linejoin="round"/>
<path d="M88.5 15.5H88.51" stroke="white" stroke-width="2" stroke-linecap="round" stroke-linejoin="round"/>
<circle cx="21" cy="21" r="21" fill="#F29D52"/>
<path d="M21.096 16.1848C19.7929 16.1848 18.5732 16.546 17.534 17.1759V11H13V29.6457H17.534V29.0089C18.5732 29.6364 19.7929 30 21.096 30C24.9079 30 28 26.9063 28 23.0924C28 19.2762 24.9102 16.1848 21.096 16.1848ZM20.4271 25.8781C18.8301 25.8781 17.534 24.5814 17.534 22.9835C17.534 21.3857 18.8301 20.089 20.4271 20.089C22.0241 20.089 23.3202 21.3857 23.3202 22.9835C23.3202 24.5837 22.0241 25.8781 20.4271 25.8781Z" fill="white"/>
</svg>
