<svg width="24" height="24" viewBox="0 0 24 24" fill="none" xmlns="http://www.w3.org/2000/svg">
<path d="M17 2H7C4.23858 2 2 4.23858 2 7V17C2 19.7614 4.23858 22 7 22H17C19.7614 22 22 19.7614 22 17V7C22 4.23858 19.7614 2 17 2Z" stroke="white" stroke-width="2" stroke-linecap="round" stroke-linejoin="round"/>
<path d="M16.0036 11.3664C16.127 12.1986 15.9849 13.0486 15.5974 13.7954C15.2099 14.5422 14.5968 15.1478 13.8452 15.5261C13.0937 15.9043 12.2421 16.036 11.4114 15.9023C10.5807 15.7687 9.81337 15.3765 9.21845 14.7816C8.62353 14.1866 8.23135 13.4193 8.09768 12.5886C7.96402 11.7579 8.09568 10.9063 8.47394 10.1548C8.8522 9.40325 9.4578 8.79014 10.2046 8.40264C10.9514 8.01514 11.8014 7.87298 12.6336 7.9964C13.4825 8.12228 14.2685 8.51786 14.8753 9.1247C15.4822 9.73154 15.8777 10.5175 16.0036 11.3664Z" stroke="white" stroke-width="2" stroke-linecap="round" stroke-linejoin="round"/>
<path d="M17.5 6.5H17.51" stroke="white" stroke-width="2" stroke-linecap="round" stroke-linejoin="round"/>
</svg>
