<svg width="130" height="40" viewBox="0 0 130 40" fill="none" xmlns="http://www.w3.org/2000/svg">
<path d="M99.133 28.4297C99.0194 28.7452 98.8982 29.0551 98.7656 29.3688C98.8963 29.0551 99.0194 28.749 99.133 28.4297Z" fill="#263140"/>
<path d="M100.177 24.0234C100.139 24.3596 100.09 24.6921 100.031 25.0245C100.088 24.6921 100.137 24.3596 100.177 24.0234Z" fill="#263140"/>
<path d="M100.317 20.8579C100.317 20.5349 100.29 20.2137 100.266 19.8906C100.292 20.2043 100.309 20.5255 100.317 20.8579Z" fill="#263140"/>
<path d="M100.32 22.0021C100.32 21.726 100.32 21.448 100.32 21.1719C100.33 21.448 100.328 21.7241 100.32 22.0021Z" fill="#263140"/>
<path d="M129.998 8.77794V24.5194C129.998 32.5544 122.627 39.3404 113.899 39.3404C108.081 39.3404 102.867 36.3071 100.049 31.897C102.008 28.272 102.879 23.9446 102.511 19.5421C102.142 15.0869 100.528 10.9435 97.9375 7.74304C98.1825 6.42953 98.8832 5.24244 99.9182 4.38756C100.953 3.53268 102.257 3.06391 103.604 3.0625C105.132 3.06449 106.596 3.66735 107.676 4.73883C108.756 5.81031 109.364 7.2629 109.365 8.77794V24.5194C109.365 26.0895 111.345 27.9133 113.897 27.9133C116.204 27.9133 118.468 26.2323 118.468 24.5194V8.77794C118.468 8.02648 118.618 7.28253 118.909 6.58857C119.2 5.89462 119.625 5.26426 120.162 4.73351C120.698 4.20276 121.335 3.78201 122.035 3.4953C122.736 3.20858 123.486 3.06152 124.244 3.0625C125.77 3.06648 127.233 3.67022 128.311 4.74148C129.39 5.81274 129.996 7.2642 129.998 8.77794V8.77794Z" fill="#263140"/>
<path d="M29.9316 11.7094C28.4217 14.6498 27.6388 17.9042 27.6476 21.2039C27.6423 25.4425 28.9355 29.5827 31.3558 33.0761V33.3954C31.3543 34.9108 30.7467 36.3637 29.6662 37.4352C28.5857 38.5068 27.1207 39.1094 25.5927 39.1109C24.065 39.1089 22.6004 38.506 21.5204 37.4346C20.4403 36.3631 19.8329 34.9105 19.8314 33.3954V26.9174H11.5304V33.3954C11.5294 34.9106 10.9221 36.3635 9.84194 37.4351C8.76176 38.5067 7.29694 39.1094 5.76909 39.1109C4.24139 39.1089 2.77687 38.506 1.6968 37.4346C0.616728 36.3631 0.00931581 34.9105 0.0078125 33.3954V9.01044C0.00981693 7.49571 0.617452 6.04361 1.69747 4.97254C2.77748 3.90147 4.24172 3.29886 5.76909 3.29688C7.29661 3.29837 8.76114 3.90081 9.84127 4.97199C10.9214 6.04316 11.5289 7.49556 11.5304 9.01044V15.4884H19.8314V9.01044C19.8334 7.49571 20.441 6.04361 21.521 4.97254C22.6011 3.90147 24.0653 3.29886 25.5927 3.29688C27.1204 3.29837 28.5851 3.90075 29.6655 4.97187C30.7459 6.043 31.3538 7.49539 31.3558 9.01044V9.33537C30.8289 10.0947 30.3531 10.8878 29.9316 11.7094V11.7094Z" fill="#263140"/>
<path d="M81.1749 14.6797C80.9193 14.6797 80.6598 14.6797 80.3984 14.6797C80.7261 14.6797 81.05 14.6797 81.3681 14.6797H81.1749ZM90.3869 37.9284C90.635 37.8213 90.8793 37.7105 91.118 37.5922C90.8793 37.7086 90.635 37.8213 90.3869 37.9284ZM98.7656 29.3618C98.8982 29.0556 99.0194 28.7457 99.133 28.4227C99.0194 28.7495 98.8963 29.0556 98.7656 29.3618V29.3618ZM100.031 25.0268C100.089 24.6944 100.139 24.3619 100.177 24.0257C100.137 24.3619 100.088 24.6944 100.031 25.0268V25.0268ZM100.267 19.8842C100.292 20.2073 100.309 20.5285 100.319 20.8515C100.311 20.5285 100.294 20.2073 100.267 19.8842V19.8842ZM100.326 21.1746C100.326 21.4507 100.326 21.7287 100.326 22.0048C100.33 21.7268 100.332 21.4507 100.326 21.1746V21.1746Z" fill="#263140"/>
<path d="M100.327 21.1736C100.294 17.8299 99.4366 14.545 97.8285 11.6059C97.4155 10.8686 96.9503 10.1613 96.4365 9.48913C96.2263 9.21867 96.0122 8.95384 95.7869 8.69652C94.7784 7.53562 93.6022 6.52925 92.2964 5.71015C91.9115 5.46765 91.5145 5.24448 91.107 5.0415C90.7453 4.85368 90.3722 4.68839 89.9953 4.5325C88.2308 3.82347 86.3575 3.4176 84.4556 3.33231C82.3609 3.30038 80.0807 3.31916 77.933 3.28159C75.5675 3.30038 73.166 3.18017 70.8232 3.48444C68.1244 4.13619 66.2892 6.7488 66.4918 9.49477C71.308 16.2939 71.2133 26.2598 66.4918 32.9294C66.4303 33.9439 66.6256 34.9576 67.06 35.8782C67.5307 36.8478 68.2678 37.666 69.1864 38.2388C70.105 38.8116 71.168 39.1157 72.2531 39.1163H76.8496C83.0692 39.1163 86.1298 39.182 87.7415 38.8214C90.8567 38.0788 93.6706 36.4144 95.8096 34.0488C95.999 33.846 96.1732 33.6375 96.3456 33.4234C96.5179 33.2093 96.6562 33.0289 96.8077 32.828C99.2603 29.4791 100.385 25.2869 100.327 21.1736ZM88.9214 21.799C88.8078 23.0236 88.5426 24.2689 87.8684 25.3132C87.6564 25.6467 87.4018 25.9517 87.1108 26.2204C86.5429 26.7219 85.8694 27.0915 85.1393 27.3022C82.8136 27.9746 80.4159 27.6779 78.0106 27.6929V14.7331C78.8079 14.7331 79.611 14.7012 80.4064 14.6899C83.4632 14.6111 87.215 14.7782 88.3949 18.1402C88.8239 19.3106 89.0031 20.5564 88.9214 21.799Z" fill="#263140"/>
<path d="M59.4952 0.546875C59.5497 0.615076 59.5978 0.688001 59.6391 0.764756C59.5981 0.687862 59.5499 0.614916 59.4952 0.546875V0.546875ZM37.9766 1.01268C38.0004 0.926469 38.0328 0.842793 38.0732 0.762876C38.032 0.842438 37.9996 0.926198 37.9766 1.01268V1.01268Z" fill="#263140"/>
<path d="M66.4852 14.2836C65.2061 11.1003 63.0777 8.32209 60.3281 6.2467C60.3433 6.14528 59.8092 1.38398 59.8073 1.28068C59.7694 0.930834 59.6024 0.607228 59.3385 0.372139C59.0745 0.137049 58.7322 0.00708014 58.3774 0.00723521C57.7164 -0.163683 54.2846 2.74756 53.7203 3.03305C50.5396 2.20288 47.1965 2.20288 44.0159 3.03305C43.425 2.73066 40.0386 -0.148658 39.3587 0.00723521C39.004 0.00786131 38.6619 0.138055 38.3978 0.372953C38.1336 0.60785 37.966 0.930998 37.9269 1.28068C37.9269 1.38586 37.3985 6.13965 37.4061 6.24483C23.1374 16.8812 30.7339 39.9965 48.8718 39.9965C62.061 40.2539 71.506 26.0995 66.4852 14.2836ZM48.8718 28.5581C39.1371 28.3872 39.1068 14.047 48.834 13.8329C58.6084 13.97 58.6444 28.391 48.8718 28.5675V28.5581Z" fill="#263140"/>
</svg>
