<svg width="226" height="70" viewBox="0 0 226 70" fill="none" xmlns="http://www.w3.org/2000/svg">
<path d="M172.334 49.75C172.137 50.3022 171.926 50.8445 171.695 51.3934C171.922 50.8445 172.137 50.3088 172.334 49.75Z" fill="#263140"/>
<path d="M174.152 42.0391C174.086 42.6274 174.001 43.2092 173.898 43.791C173.997 43.2092 174.083 42.6274 174.152 42.0391Z" fill="#263140"/>
<path d="M174.393 36.4975C174.393 35.9321 174.347 35.37 174.305 34.8047C174.35 35.3536 174.38 35.9157 174.393 36.4975Z" fill="#263140"/>
<path d="M174.406 38.4997C174.406 38.0165 174.406 37.53 174.406 37.0469C174.423 37.53 174.419 38.0132 174.406 38.4997Z" fill="#263140"/>
<path d="M226.001 15.3692V42.9167C226.001 56.978 213.187 68.8536 198.015 68.8536C187.9 68.8536 178.836 63.5452 173.937 55.8276C177.341 49.4839 178.856 41.9109 178.217 34.2064C177.575 26.4099 174.77 19.159 170.266 13.5581C170.692 11.2595 171.91 9.18208 173.709 7.68604C175.508 6.19 177.775 5.36965 180.117 5.3672C182.773 5.37068 185.319 6.42568 187.196 8.30077C189.074 10.1758 190.13 12.7179 190.133 15.3692V42.9167C190.133 45.6645 193.573 48.8561 198.011 48.8561C202.022 48.8561 205.956 45.9143 205.956 42.9167V15.3692C205.958 14.0542 206.218 12.7522 206.724 11.5378C207.229 10.3234 207.969 9.22027 208.902 8.29146C209.834 7.36264 210.941 6.62634 212.159 6.12458C213.376 5.62283 214.681 5.36547 215.998 5.3672C218.652 5.37415 221.195 6.43069 223.069 8.3054C224.944 10.1801 225.998 12.7202 226.001 15.3692V15.3692Z" fill="#263140"/>
<path d="M52.0292 20.4954C49.4043 25.6411 48.0432 31.3363 48.0585 37.1107C48.0494 44.5282 50.2975 51.7736 54.5052 57.8872V58.4459C54.5025 61.0978 53.4461 63.6404 51.5678 65.5156C49.6894 67.3907 47.1425 68.4453 44.4861 68.448C41.8303 68.4445 39.2842 67.3895 37.4066 65.5144C35.5289 63.6393 34.4729 61.0973 34.4703 58.4459V47.1094H20.0393V58.4459C20.0376 61.0975 18.9819 63.6401 17.1041 65.5154C15.2262 67.3906 12.6797 68.4453 10.0236 68.448C7.36772 68.4445 4.82171 67.3895 2.94405 65.5144C1.06639 63.6393 0.010426 61.0973 0.0078125 58.4459V15.7722C0.0112971 13.1214 1.06765 10.5802 2.94521 8.70584C4.82278 6.83147 7.36829 5.77692 10.0236 5.77344C12.6791 5.77605 15.2251 6.83032 17.1029 8.70488C18.9806 10.5794 20.0367 13.1211 20.0393 15.7722V27.1087H34.4703V15.7722C34.4738 13.1214 35.5302 10.5802 37.4077 8.70584C39.2853 6.83147 41.8308 5.77692 44.4861 5.77344C47.142 5.77605 49.6883 6.83021 51.5666 8.70468C53.4449 10.5791 54.5017 13.1208 54.5052 15.7722V16.3408C53.589 17.6697 52.7619 19.0576 52.0292 20.4954V20.4954Z" fill="#263140"/>
<path d="M141.116 25.6875C140.671 25.6875 140.22 25.6875 139.766 25.6875C140.335 25.6875 140.898 25.6875 141.451 25.6875H141.116ZM157.13 66.3727C157.562 66.1853 157.986 65.9914 158.401 65.7843C157.986 65.9881 157.562 66.1853 157.13 66.3727ZM171.696 51.3812C171.927 50.8454 172.137 50.3031 172.335 49.7377C172.137 50.3096 171.923 50.8454 171.696 51.3812V51.3812ZM173.896 43.795C173.998 43.2132 174.083 42.6314 174.149 42.0431C174.08 42.6314 173.994 43.2132 173.896 43.795V43.795ZM174.307 34.7955C174.35 35.3608 174.38 35.9229 174.396 36.4882C174.383 35.9229 174.353 35.3608 174.307 34.7955V34.7955ZM174.409 37.0536C174.409 37.5368 174.409 38.0232 174.409 38.5064C174.416 38.0199 174.419 37.5368 174.409 37.0536V37.0536Z" fill="#263140"/>
<path d="M174.409 37.0518C174.353 31.2004 172.862 25.4517 170.067 20.3084C169.349 19.0181 168.54 17.7802 167.647 16.604C167.281 16.1307 166.909 15.6673 166.517 15.217C164.764 13.1854 162.719 11.4242 160.449 9.99081C159.78 9.56643 159.09 9.17589 158.382 8.82067C157.753 8.49198 157.104 8.20273 156.449 7.92992C153.381 6.68912 150.125 5.97885 146.818 5.82959C143.177 5.77371 139.213 5.80657 135.479 5.74083C131.367 5.7737 127.192 5.56335 123.119 6.09583C118.427 7.23638 115.237 11.8084 115.589 16.6139C123.962 28.5125 123.797 45.9527 115.589 57.6245C115.482 59.3999 115.822 61.1739 116.577 62.7849C117.395 64.4817 118.676 65.9135 120.273 66.9159C121.87 67.9183 123.718 68.4506 125.605 68.4515H133.596C144.408 68.4515 149.729 68.5666 152.531 67.9355C157.946 66.636 162.838 63.7232 166.557 59.5835C166.886 59.2285 167.189 58.8637 167.489 58.4889C167.788 58.1142 168.029 57.7987 168.292 57.447C172.556 51.5865 174.512 44.2501 174.409 37.0518ZM154.582 38.1463C154.384 40.2894 153.924 42.4686 152.751 44.2961C152.383 44.8798 151.94 45.4134 151.434 45.8837C150.447 46.7613 149.276 47.4081 148.007 47.7769C143.964 48.9537 139.795 48.4343 135.614 48.4606V25.781C137 25.781 138.396 25.7252 139.779 25.7054C145.093 25.5674 151.616 25.8599 153.667 31.7435C154.412 33.7915 154.724 35.9718 154.582 38.1463Z" fill="#263140"/>
<path d="M103.433 0.953125C103.527 1.07248 103.611 1.2001 103.683 1.33442C103.612 1.19985 103.528 1.0722 103.433 0.953125V0.953125ZM66.0234 1.76829C66.0649 1.61741 66.1211 1.47098 66.1914 1.33113C66.1197 1.47036 66.0634 1.61694 66.0234 1.76829V1.76829Z" fill="#263140"/>
<path d="M115.576 24.9964C113.353 19.4255 109.652 14.5637 104.872 10.9317C104.899 10.7542 103.97 2.42197 103.967 2.24119C103.901 1.62896 103.611 1.06265 103.152 0.651243C102.693 0.239836 102.098 0.0123902 101.481 0.0126616C100.332 -0.286446 94.366 4.80824 93.3848 5.30784C87.8554 3.85504 82.0435 3.85504 76.5141 5.30784C75.4868 4.77865 69.5999 -0.260151 68.4179 0.0126616C67.8011 0.0137573 67.2064 0.241596 66.7472 0.652667C66.2881 1.06374 65.9967 1.62925 65.9287 2.24119C65.9287 2.42525 65.0101 10.7444 65.0233 10.9284C40.2177 29.5421 53.4238 69.9939 84.9561 69.9939C107.885 70.4443 124.305 45.6742 115.576 24.9964ZM84.9561 49.9768C68.0326 49.6777 67.98 24.5822 84.8902 24.2075C101.883 24.4474 101.945 49.6842 84.9561 49.9932V49.9768Z" fill="#263140"/>
</svg>
